<?xml version="1.0" encoding="UTF-8"?>
<svg xmlns="http://www.w3.org/2000/svg" id="Layer_3" data-name="Layer 3" viewBox="0 0 194.52 152.8">
  <defs>
    <style>
      .cls-1 {
        fill: #e6502d;
      }

      .cls-2 {
        fill: #1a1c1e;
      }
    </style>
  </defs>
  <g id="Layer_1" data-name="Layer 1">
    <g>
      <g>
        <path class="cls-2" d="M13.72,129.78c-.37-.31-.76-.6-1.19-.84-.66-.37-1.38-.67-2.15-.88-.77-.21-1.56-.31-2.38-.31-1.19,0-2.28.21-3.26.63-.98.42-1.82,1-2.53,1.75-.71.75-1.25,1.65-1.64,2.71-.39,1.06-.58,2.23-.58,3.5,0,1.37.23,2.63.69,3.78.46,1.16,1.11,2.15,1.93,2.99.83.84,1.82,1.49,2.97,1.95,1.16.46,2.44.69,3.85.69s2.65-.23,3.78-.69c1.13-.46,2.1-1.13,2.91-2,.8-.87,1.43-1.92,1.87-3.16.44-1.23.66-2.61.66-4.13v-13.65h-4.96v7.65ZM13.44,138.21c-.19.61-.46,1.12-.83,1.54-.36.42-.81.74-1.34.96-.53.22-1.12.33-1.78.33s-1.31-.11-1.87-.33c-.56-.22-1.04-.53-1.44-.93-.4-.4-.7-.86-.91-1.4-.21-.54-.31-1.15-.31-1.83,0-.64.1-1.22.3-1.74.2-.52.49-.96.88-1.34.39-.37.84-.66,1.37-.86.53-.2,1.12-.3,1.78-.3,1.26,0,2.41.35,3.45,1.06.35.24.67.52.98.82v1.92c0,.79-.09,1.49-.28,2.1Z"></path>
        <path class="cls-2" d="M38.28,132.14c-.48-.97-1.12-1.8-1.92-2.5s-1.72-1.23-2.78-1.6c-1.06-.37-2.2-.56-3.44-.56-1.34,0-2.58.23-3.72.68-1.14.45-2.1,1.08-2.91,1.88-.8.8-1.43,1.76-1.88,2.88-.45,1.11-.68,2.34-.68,3.69s.23,2.58.68,3.7c.45,1.12,1.08,2.09,1.88,2.89.8.8,1.77,1.43,2.89,1.88,1.12.45,2.36.68,3.7.68s2.56-.22,3.72-.66,2.18-1.08,3.06-1.92l-2.28-3.54c-.64.55-1.32.96-2.03,1.24-.72.28-1.47.41-2.26.41-.73,0-1.38-.12-1.97-.35-.58-.23-1.09-.56-1.5-.98-.19-.19-.36-.41-.51-.64l12.84-3.99c-.11-1.17-.41-2.24-.89-3.21ZM26.82,132.97c.41-.42.9-.74,1.47-.96.57-.22,1.21-.33,1.92-.33.6,0,1.15.08,1.65.25.51.17.96.4,1.35.69.25.19.47.42.68.66l-8.29,2.56c.05-.49.13-.95.28-1.36.22-.58.53-1.08.94-1.5Z"></path>
        <path class="cls-2" d="M46.82,133.36c.41-.4.9-.7,1.47-.93.57-.22,1.2-.33,1.88-.33.75,0,1.47.14,2.17.41.69.28,1.32.68,1.87,1.21l2.64-3.54c-.86-.86-1.88-1.53-3.07-2-1.19-.47-2.46-.71-3.8-.71s-2.55.23-3.69.69c-1.14.46-2.12,1.1-2.96,1.92-.84.82-1.49,1.78-1.97,2.89-.47,1.11-.71,2.32-.71,3.62s.24,2.51.71,3.64c.47,1.12,1.13,2.09,1.97,2.91.84.82,1.83,1.45,2.97,1.92,1.15.46,2.38.69,3.7.69s2.58-.24,3.77-.71c1.19-.47,2.21-1.14,3.07-2l-2.64-3.54c-.51.51-1.12.9-1.83,1.19-.72.29-1.45.43-2.2.43-.68,0-1.31-.12-1.88-.35-.57-.23-1.06-.54-1.47-.94-.41-.4-.73-.88-.96-1.44-.23-.56-.35-1.16-.35-1.8s.12-1.27.35-1.82c.23-.55.55-1.02.96-1.42Z"></path>
        <path class="cls-2" d="M73.3,130.01c-.83-.81-1.81-1.42-2.96-1.86-1.14-.44-2.4-.66-3.77-.66s-2.62.22-3.78.67c-1.15.45-2.14,1.09-2.96,1.89s-1.45,1.76-1.91,2.87c-.47,1.11-.7,2.34-.7,3.69s.23,2.58.7,3.71c.46,1.12,1.1,2.08,1.93,2.89.83.81,1.81,1.43,2.96,1.88,1.14.45,2.4.68,3.76.68s2.63-.23,3.77-.68c1.14-.45,2.13-1.08,2.96-1.88.83-.81,1.47-1.77,1.92-2.89.45-1.12.67-2.36.67-3.71s-.22-2.57-.67-3.71c-.45-1.12-1.09-2.08-1.92-2.89ZM70.7,138.46c-.22.55-.53,1.03-.91,1.42-.38.39-.85.7-1.4.92-.56.22-1.16.34-1.82.34s-1.26-.12-1.81-.34c-.55-.22-1.03-.53-1.42-.92-.39-.39-.7-.87-.92-1.44-.22-.56-.34-1.17-.34-1.83s.12-1.27.34-1.81c.22-.56.53-1.03.92-1.42.39-.4.87-.71,1.42-.93.56-.22,1.16-.33,1.81-.33s1.27.11,1.82.33c.55.22,1.03.53,1.42.91.39.38.7.85.91,1.42.2.56.31,1.17.31,1.83s-.11,1.31-.33,1.85Z"></path>
        <path class="cls-2" d="M86.57,127.48c-2.69,0-4.76.82-6.21,2.46-1.46,1.64-2.18,3.96-2.18,6.96v8.26h4.96v-8.1c0-.82.09-1.53.26-2.15.18-.62.45-1.13.81-1.55.36-.42.8-.73,1.32-.94.52-.21,1.12-.31,1.8-.31.33,0,.62.02.88.07.25.04.49.11.71.2v-4.56c-.38-.11-.75-.19-1.12-.25-.38-.05-.78-.08-1.22-.08Z"></path>
        <path class="cls-2" d="M108.16,136.52c-.08-1.17-.28-2.24-.61-3.21-.43-1.22-1.05-2.27-1.85-3.14-.81-.86-1.78-1.54-2.91-2-.42-.17-.85-.31-1.32-.42-.77-.17-1.59-.27-2.47-.27-1.39,0-2.67.23-3.84.69-1.16.46-2.17,1.1-3.01,1.92-.84.82-1.49,1.79-1.95,2.91-.46,1.12-.69,2.35-.69,3.7,0,1.24.19,2.38.6,3.44.39,1.07.95,1.97,1.66,2.73.72.77,1.58,1.36,2.58,1.79,1,.43,2.1.64,3.29.64,1.06,0,2.03-.15,2.92-.47.79-.29,1.5-.66,2.11-1.14.08-.06.16-.12.24-.18.26-.22.5-.45.71-.69v2.36h4.56v-7.97c0-.2,0-.39-.03-.6v-.09ZM103.22,138.77c-.15.18-.33.36-.51.53-.55.51-1.14.89-1.79,1.16-.04.03-.08.04-.12.06-.68.28-1.4.41-2.15.41-.63,0-1.22-.1-1.73-.3-.52-.2-.96-.48-1.32-.85s-.64-.81-.84-1.33-.3-1.11-.3-1.76.11-1.27.32-1.83c.21-.56.51-1.04.9-1.43.4-.4.87-.71,1.43-.93.55-.22,1.15-.33,1.81-.33.38,0,.75.04,1.08.12.25.05.49.12.71.21.55.22,1,.55,1.36.98.36.42.64.94.84,1.56.2.6.3,1.29.3,2.06v1.67Z"></path>
        <rect class="cls-2" x="123.38" y="128.04" width="4.96" height="17.13"></rect>
        <path class="cls-2" d="M125.87,121.16c-.36,0-.69.06-1,.17-.31.11-.57.26-.79.46h0c-.22.2-.38.44-.51.72-.12.29-.18.61-.18.96,0,.71.24,1.27.71,1.67.48.41,1.07.61,1.78.61.35,0,.68-.06.99-.16.31-.12.57-.27.78-.46h0c.22-.2.39-.44.52-.72.12-.27.18-.59.18-.94,0-.7-.24-1.27-.71-1.68-.48-.42-1.07-.63-1.77-.63Z"></path>
        <rect class="cls-2" x="131.19" y="128.04" width="4.95" height="17.13"></rect>
        <path class="cls-2" d="M133.67,121.16c-.36,0-.68.06-.99.17-.31.11-.58.26-.8.46-.22.19-.39.44-.51.72-.12.29-.18.61-.18.96,0,.71.23,1.27.71,1.67.47.41,1.07.61,1.77.61.36,0,.68-.06.99-.16.31-.12.58-.27.8-.47.22-.19.39-.43.51-.71.12-.27.18-.59.18-.94,0-.7-.23-1.27-.71-1.68-.47-.42-1.07-.63-1.77-.63Z"></path>
        <path class="cls-2" d="M141.07,140.34c-.4,0-.75.06-1.07.18-.32.12-.6.29-.84.51-.24.22-.43.48-.56.79s-.2.65-.2,1.02c0,.77.25,1.39.76,1.85.51.46,1.14.69,1.92.69.38,0,.73-.06,1.06-.18.33-.12.62-.29.86-.51.24-.22.43-.48.56-.79.13-.31.2-.66.2-1.06,0-.77-.25-1.38-.76-1.84-.51-.45-1.15-.68-1.92-.68Z"></path>
        <path class="cls-2" d="M171.43,129.86c-.69-.77-1.54-1.36-2.54-1.77-1-.41-2.13-.61-3.39-.61-.86,0-1.66.09-2.41.28-.75.19-1.43.46-2.03.83-.52.31-.97.7-1.38,1.14-.39-.43-.82-.81-1.33-1.12-.61-.37-1.28-.66-2.02-.84-.74-.19-1.54-.28-2.4-.28-1.28,0-2.41.2-3.4.61-.99.41-1.83,1-2.53,1.77-.69.77-1.22,1.71-1.59,2.83-.36,1.11-.55,2.37-.55,3.78v8.69h4.66v-8.79c0-.73.07-1.36.21-1.88.14-.53.35-.97.63-1.32.27-.35.63-.62,1.06-.79.43-.18.94-.26,1.54-.26s1.1.09,1.52.26c.42.18.77.45,1.06.81.29.36.5.82.63,1.37.13.55.2,1.21.2,1.98v8.63h4.69v-8.63c0-.77.07-1.44.2-2,.13-.56.34-1.02.61-1.37.27-.35.63-.62,1.06-.79.43-.18.93-.26,1.5-.26s1.11.08,1.54.25c.43.17.79.42,1.07.78.29.35.5.8.63,1.34.13.54.2,1.17.2,1.9v8.79h4.69v-8.69c0-1.41-.18-2.67-.55-3.78-.36-1.11-.89-2.05-1.59-2.83Z"></path>
        <path class="cls-2" d="M189.56,122.13v7.65c-.37-.31-.76-.6-1.19-.84-.66-.37-1.38-.67-2.15-.88-.77-.21-1.56-.31-2.38-.31-1.19,0-2.28.21-3.26.63-.98.42-1.82,1-2.53,1.75-.71.75-1.25,1.65-1.64,2.71-.39,1.06-.58,2.23-.58,3.5,0,1.37.23,2.63.69,3.78.46,1.16,1.11,2.15,1.93,2.99.83.84,1.82,1.49,2.98,1.95,1.16.46,2.44.69,3.85.69s2.65-.23,3.79-.69c1.13-.46,2.1-1.13,2.91-2,.8-.87,1.43-1.92,1.87-3.16.44-1.23.66-2.61.66-4.13v-13.65h-4.96ZM189.28,138.21c-.19.61-.46,1.12-.83,1.54-.36.42-.81.74-1.34.96-.53.22-1.12.33-1.79.33s-1.31-.11-1.87-.33c-.56-.22-1.04-.53-1.44-.93-.4-.4-.7-.86-.91-1.4-.21-.54-.31-1.15-.31-1.83,0-.64.1-1.22.3-1.74.2-.52.49-.96.88-1.34.39-.37.84-.66,1.37-.86.53-.2,1.12-.3,1.79-.3,1.26,0,2.41.35,3.45,1.06.35.24.67.52.98.82v1.92c0,.79-.09,1.49-.28,2.1Z"></path>
        <path class="cls-2" d="M119.59,141.13c-1.41,0-2.48-.42-3.2-1.26-.71-.84-1.08-2.07-1.08-3.71v-3.83h5.72v-4.3h-5.72v-3.6h-4.95v11.87c0,2.98.73,5.29,2.2,6.96,1.47,1.66,3.49,2.5,6.1,2.5.46,0,.89-.03,1.28-.09.38-.06.78-.14,1.17-.28v-4.53c-.22.09-.46.15-.71.2-.26.04-.53.07-.81.07Z"></path>
        <path class="cls-2" d="M113.42,149.89l1.88.34c-.03.29-.18.56-.49.84-.3.27-.66.51-1.09.71l.36,1.03c1.3-.26,2.29-.74,2.96-1.44.6-.61.94-1.38,1-2.31.02-.12.02-.24.02-.36v-1.69c-1.75-.08-3.29-.49-4.64-1.23v4.13Z"></path>
      </g>
      <g>
        <path class="cls-1" d="M134.12,16.01c-27.66,28-83.02,79.83-83.02,46.04V0h44.87c14.94,0,28.44,6.13,38.15,16.01Z"></path>
        <path class="cls-2" d="M145.21,32.15c-2.5-5.61-5.93-10.72-10.1-15.12-25.73,30.32-72.99,90.97-39.1,90.97.18,0,.35,0,.53,0,29.51-.28,53.33-24.31,53.33-53.9,0-7.82-1.66-15.24-4.65-21.95Z"></path>
        <path class="cls-1" d="M75.57,96.27c0,4.28-1.83,8.14-4.76,10.81-2.6,2.38-6.07,3.83-9.87,3.83-8.09,0-14.64-6.56-14.64-14.65,0-4.3,1.85-8.16,4.79-10.84,2.6-2.36,6.05-3.8,9.84-3.8,8.08,0,14.63,6.55,14.63,14.64Z"></path>
      </g>
    </g>
  </g>
</svg>
